<svg width="128" height="128" viewBox="0 0 128 128" fill="none" xmlns="http://www.w3.org/2000/svg">
<g clip-path="url(#clip0_180_678)">
<path d="M49.766 72.7315C43.9523 66.9179 40.6863 59.0329 40.6863 50.8112C40.6863 42.5895 43.9523 34.7045 49.766 28.8909C55.5796 23.0772 63.4646 19.8112 71.6863 19.8112C79.908 19.8112 87.793 23.0772 93.6066 28.8909" stroke="#E25C4C" stroke-width="8"/>
<path d="M78.0503 55.7609C83.8639 61.5746 87.1299 69.4595 87.1299 77.6812C87.1299 85.903 83.8639 93.7879 78.0503 99.6016C72.2366 105.415 64.3517 108.681 56.1299 108.681C47.9082 108.681 40.0233 105.415 34.2096 99.6016" stroke="#E25C4C" stroke-width="8"/>
<path d="M110.577 23.234C113.456 26.1126 115.739 29.5301 117.297 33.2911C118.855 37.0522 119.657 41.0834 119.657 45.1543C119.657 49.2253 118.855 53.2564 117.297 57.0175C115.739 60.7786 113.456 64.196 110.577 67.0746" stroke="#E25C4C" stroke-width="8"/>
<path d="M17.2391 105.258C14.3604 102.38 12.077 98.9624 10.5191 95.2013C8.9612 91.4402 8.15936 87.4091 8.15936 83.3381C8.15936 79.2671 8.9612 75.236 10.5191 71.4749C12.077 67.7138 14.3604 64.2964 17.2391 61.4178" stroke="#E25C4C" stroke-width="8"/>
<path d="M61.0797 61.4178C58.2666 58.6047 56.6863 54.7894 56.6863 50.8112C56.6863 46.8329 58.2666 43.0176 61.0797 40.2046C63.8927 37.3915 67.708 35.8112 71.6863 35.8112C75.6645 35.8112 79.4798 37.3915 82.2929 40.2046" stroke="#E25C4C" stroke-width="8"/>
<path d="M66.7365 67.0746C69.5496 69.8877 71.1299 73.703 71.1299 77.6812C71.1299 81.6595 69.5496 85.4748 66.7365 88.2878C63.9235 91.1009 60.1082 92.6812 56.1299 92.6812C52.1517 92.6812 48.3364 91.1009 45.5233 88.2878" stroke="#E25C4C" stroke-width="8"/>
<path d="M99.2635 34.5477C100.656 35.9406 101.761 37.5942 102.515 39.4141C103.269 41.234 103.657 43.1845 103.657 45.1543C103.657 47.1242 103.269 49.0747 102.515 50.8946C101.761 52.7145 100.656 54.3681 99.2635 55.7609" stroke="#E25C4C" stroke-width="8"/>
<path d="M28.5528 93.9447C27.1599 92.5518 26.055 90.8982 25.3012 89.0783C24.5473 87.2585 24.1594 85.3079 24.1594 83.3381C24.1594 81.3683 24.5473 79.4177 25.3012 77.5978C26.055 75.778 27.1599 74.1244 28.5528 72.7315" stroke="#E25C4C" stroke-width="8"/>
</g>
<defs>
<clipPath id="clip0_180_678">
<rect width="128" height="128" fill="white"/>
</clipPath>
</defs>
</svg>
